<?xml version="1.0" encoding="UTF-8"?>
<svg xmlns="http://www.w3.org/2000/svg" viewBox="0 0 430.29 223.93">
  <defs>
    <style>
      .cls-1 {
        fill: #fff;
      }

      .cls-2 {
        fill: #e2ca92;
      }

      .cls-3 {
        fill: #d8afdc;
      }

      .cls-4 {
        fill: #887190;
      }
    </style>
  </defs>
  <g id="Layer_1" data-name="Layer 1">
    <g id="Layer_4" data-name="Layer 4">
      <path class="cls-2" d="m145.18,43.3h0c-1.72-.86-2.41-2.92-1.55-4.64l16.84-33.62c.86-1.72,2.92-2.41,4.64-1.55h0c1.72.86,2.41,2.92,1.55,4.64l-16.84,33.62c-.92,1.66-2.98,2.35-4.64,1.55Z"/>
      <path class="cls-2" d="m140.14,57.56h0c1.72-.86,2.41-2.92,1.55-4.64l-16.84-33.62c-.86-1.72-2.92-2.41-4.64-1.55h0c-1.72.86-2.41,2.92-1.55,4.64l16.84,33.62c.86,1.66,2.92,2.35,4.64,1.55Z"/>
      <circle class="cls-2" cx="120.27" cy="17.75" r="6.3"/>
      <circle class="cls-2" cx="163.79" cy="6.3" r="6.3"/>
    </g>
    <g id="Layer_3" data-name="Layer 3">
      <path class="cls-2" d="m24.05,223.93h-10.88c-.63,0-1.15-.52-1.15-1.15v-5.15c0-.63.52-1.15,1.15-1.15h10.88c.63,0,1.15.52,1.15,1.15v5.21c0,.57-.52,1.09-1.15,1.09Z"/>
      <path class="cls-2" d="m170.67,223.93h-10.88c-.63,0-1.15-.52-1.15-1.15v-5.15c0-.63.52-1.15,1.15-1.15h10.88c.63,0,1.15.52,1.15,1.15v5.21c0,.57-.52,1.09-1.15,1.09Z"/>
    </g>
    <g id="Layer_1-2" data-name="Layer 1">
      <path class="cls-4" d="m172.96,219.92H9.16c-5.04,0-9.16-4.12-9.16-9.16V46.96c0-5.04,4.12-9.16,9.16-9.16h163.79c5.04,0,9.16,4.12,9.16,9.16v163.79c0,5.04-4.12,9.16-9.16,9.16Z"/>
      <path d="m167.23,214.19H14.89c-5.04,0-9.16-4.12-9.16-9.16V52.69c0-5.04,4.12-9.16,9.16-9.16h152.34c5.04,0,9.16,4.12,9.16,9.16v152.34c0,5.04-4.12,9.16-9.16,9.16Z"/>
    </g>
    <g id="Layer_2" data-name="Layer 2">
      <g>
        <path class="cls-1" d="m67.41,147.99l-16.15-23.14v23.08h-9.85v-38.2h10.14l15.46,21.99v-21.99h9.91v38.2h-9.51v.06Z"/>
        <path class="cls-3" d="m80.35,149.13l13.57-40.49h6.24l-13.57,40.49h-6.24Z"/>
        <path class="cls-1" d="m130,147.99l-1.95-5.78h-15.86l-1.95,5.78h-10.71l14.37-38.2h12.37l14.43,38.2h-10.71Zm-9.91-29.67l-5.33,15.52h10.71l-5.38-15.52Z"/>
      </g>
    </g>
  </g>
  <g id="Layer_2-2" data-name="Layer 2">
    <g>
      <path class="cls-1" d="m191.29,161.48v-66.7h48.9v14.5h-31.7v11.1h31v14.6h-31v26.5h-17.2Z"/>
      <path class="cls-1" d="m247.98,98.28c0-4.9,3.9-8.8,8.8-8.8s8.8,3.9,8.8,8.8-3.9,8.8-8.8,8.8-8.8-3.9-8.8-8.8Zm1.1,63.2v-48.3h15.4v48.3h-15.4Z"/>
      <path class="cls-1" d="m275.68,161.48v-66.7h15.4v66.7h-15.4Z"/>
      <path class="cls-1" d="m363.19,161.48v-29.4c0-3.7-1.8-6.5-6.4-6.5-4.2,0-7.2,2.7-8.7,4.7v31.2h-15.4v-29.4c0-3.7-1.7-6.5-6.4-6.5-4.1,0-7,2.7-8.6,4.7v31.2h-15.4v-48.3h15.4v5.9c2.1-2.8,8.3-7.1,15.9-7.1,6.9,0,11.7,2.9,13.7,8.6,2.8-4.2,9.1-8.6,16.7-8.6,8.9,0,14.5,4.6,14.5,14.5v35h-15.3Z"/>
      <path class="cls-1" d="m392.08,144.68c3.6,3.2,11.3,6.4,17,6.4,4.6,0,6.5-1.5,6.5-3.6,0-2.5-3.3-3.4-8.3-4.2-8.2-1.4-19.8-3.1-19.8-15.4,0-8.5,7.3-15.9,20.7-15.9,8.1,0,15,2.6,20.2,6.4l-5.9,10.2c-2.9-2.8-8.4-5.3-14.2-5.3-3.6,0-6.1,1.2-6.1,3.3s2.6,3,7.7,3.9c8.2,1.4,20.4,3.4,20.4,16.2,0,9.2-8.1,16-22,16-8.6,0-17.5-2.9-22.6-7.4l6.4-10.6Z"/>
    </g>
  </g>
</svg>