<?xml version="1.0" encoding="UTF-8"?>
<svg id="Layer_1" data-name="Layer 1" xmlns="http://www.w3.org/2000/svg" viewBox="0 0 318 391">
  <defs>
    <style>
      .cls-1 {
        fill: #fff;
      }

      .cls-2 {
        fill: #e2ca92;
      }

      .cls-3 {
        fill: #d8afdc;
      }

      .cls-4 {
        fill: #887190;
      }
    </style>
  </defs>
  <g id="Layer_4" data-name="Layer 4">
    <path class="cls-2" d="m253.5,75.6h0c-3-1.5-4.2-5.1-2.7-8.1l29.4-58.7c1.5-3,5.1-4.2,8.1-2.7h0c3,1.5,4.2,5.1,2.7,8.1l-29.4,58.7c-1.6,2.9-5.2,4.1-8.1,2.7Z"/>
    <path class="cls-2" d="m244.7,100.5h0c3-1.5,4.2-5.1,2.7-8.1l-29.4-58.7c-1.5-3-5.1-4.2-8.1-2.7h0c-3,1.5-4.2,5.1-2.7,8.1l29.4,58.7c1.5,2.9,5.1,4.1,8.1,2.7Z"/>
    <circle class="cls-2" cx="210" cy="31" r="11"/>
    <circle class="cls-2" cx="286" cy="11" r="11"/>
  </g>
  <g id="Layer_3" data-name="Layer 3">
    <path class="cls-2" d="m42,391h-19c-1.1,0-2-.9-2-2v-9c0-1.1.9-2,2-2h19c1.1,0,2,.9,2,2v9.1c0,1-.9,1.9-2,1.9Z"/>
    <path class="cls-2" d="m298,391h-19c-1.1,0-2-.9-2-2v-9c0-1.1.9-2,2-2h19c1.1,0,2,.9,2,2v9.1c0,1-.9,1.9-2,1.9Z"/>
  </g>
  <g id="Layer_1-2" data-name="Layer 1">
    <path class="cls-4" d="m302,384H16c-8.8,0-16-7.2-16-16V82c0-8.8,7.2-16,16-16h286c8.8,0,16,7.2,16,16v286c0,8.8-7.2,16-16,16Z"/>
    <path d="m292,374H26c-8.8,0-16-7.2-16-16V92c0-8.8,7.2-16,16-16h266c8.8,0,16,7.2,16,16v266c0,8.8-7.2,16-16,16Z"/>
  </g>
  <g id="Layer_2" data-name="Layer 2">
    <g>
      <path class="cls-1" d="m117.7,258.4l-28.2-40.4v40.3h-17.2v-66.7h17.7l27,38.4v-38.4h17.3v66.7h-16.6v.1Z"/>
      <path class="cls-3" d="m141.7,258.4l23.7-70.7h10.9l-23.7,70.7h-10.9Z"/>
      <path class="cls-1" d="m227,258.4l-3.4-10.1h-27.7l-3.4,10.1h-18.7l25.1-66.7h21.6l25.2,66.7h-18.7Zm-17.3-51.8l-9.3,27.1h18.7l-9.4-27.1Z"/>
    </g>
  </g>
</svg>