<?xml version="1.0" encoding="utf-8"?>
<!-- Generator: Adobe Illustrator 27.5.0, SVG Export Plug-In . SVG Version: 6.00 Build 0)  -->
<svg version="1.1" xmlns="http://www.w3.org/2000/svg" xmlns:xlink="http://www.w3.org/1999/xlink" x="0px" y="0px"
	 viewBox="0 0 500 500" style="enable-background:new 0 0 500 500;" xml:space="preserve">
<style type="text/css">
	.st0{fill:#E2CA92;}
	.st1{fill:#887190;}
	.st2{fill:#FFFFFF;}
	.st3{fill:#D8AFDC;}
</style>
<g id="Layer_4">
	<path class="st0" d="M344.5,100.6L344.5,100.6c-3-1.5-4.2-5.1-2.7-8.1l29.4-58.7c1.5-3,5.1-4.2,8.1-2.7l0,0c3,1.5,4.2,5.1,2.7,8.1
		l-29.4,58.7C351,100.8,347.4,102,344.5,100.6z"/>
	<path class="st0" d="M335.7,125.5L335.7,125.5c3-1.5,4.2-5.1,2.7-8.1l-29.4-58.7c-1.5-3-5.1-4.2-8.1-2.7v0c-3,1.5-4.2,5.1-2.7,8.1
		l29.4,58.7C329.1,125.7,332.7,126.9,335.7,125.5z"/>
	<circle class="st0" cx="301" cy="56" r="11"/>
	<circle class="st0" cx="377" cy="36" r="11"/>
</g>
<g id="Layer_3">
	<path class="st0" d="M133,416H114c-1.1,0-2-0.9-2-2V405c0-1.1,0.9-2,2-2H133c1.1,0,2,0.9,2,2v9.1C135,415.1,134.1,416,133,416z"/>
	<path class="st0" d="M389,416H370c-1.1,0-2-0.9-2-2V405c0-1.1,0.9-2,2-2H389c1.1,0,2,0.9,2,2v9.1C391,415.1,390.1,416,389,416z"/>
</g>
<g id="Layer_1">
	<g>
		<path class="st1" d="M393,409H107c-8.8,0-16-7.2-16-16V107c0-8.8,7.2-16,16-16h286c8.8,0,16,7.2,16,16v286
			C409,401.8,401.8,409,393,409z"/>
	</g>
	<g>
		<path d="M383,399H117c-8.8,0-16-7.2-16-16V117c0-8.8,7.2-16,16-16h266c8.8,0,16,7.2,16,16v266C399,391.8,391.8,399,383,399z"/>
	</g>
</g>
<g id="Layer_2">
	<g>
		<path class="st2" d="M208.7,283.4L180.5,243v40.3h-17.2v-66.7H181l27,38.4v-38.4h17.3v66.7H208.7z"/>
		<path class="st3" d="M231.3,285.4l23.7-70.7h10.9l-23.7,70.7H231.3z"/>
		<path class="st2" d="M318,283.4l-3.4-10.1h-27.7l-3.4,10.1h-18.7l25.1-66.7h21.6l25.2,66.7H318z M300.7,231.6l-9.3,27.1h18.7
			L300.7,231.6z"/>
	</g>
</g>
</svg>
